<svg width="25" height="24" viewBox="0 0 25 24" fill="none" xmlns="http://www.w3.org/2000/svg">
<path d="M3.84229 12.006L3.83591 11.9991L3.8294 11.9922C3.25915 11.3904 2.87499 10.6876 2.67123 9.86547C2.46508 9.03366 2.46608 8.22026 2.67026 7.40909C2.87297 6.60371 3.25622 5.90652 3.8294 5.30165C4.39937 4.70015 5.05357 4.30645 5.80514 4.09902C6.56674 3.88881 7.30719 3.89004 8.0485 4.09784C8.77005 4.3001 9.40826 4.68172 9.97314 5.26674L11.543 7.26388L12.407 8.36293L13.2709 7.26388L14.8482 5.25731C15.3757 4.68602 16.0052 4.30453 16.7571 4.10014C17.5374 3.88804 18.2866 3.89043 19.0265 4.09784C19.7623 4.30409 20.4115 4.69687 20.9846 5.30164C21.5577 5.90652 21.941 6.60371 22.1437 7.40908L23.2094 7.14085L22.1437 7.40909C22.3479 8.22026 22.3489 9.03366 22.1427 9.86546L23.2094 10.1298L22.1427 9.86547C21.939 10.6876 21.5548 11.3904 20.9846 11.9922L20.9781 11.9991L20.9717 12.006L12.407 21.3619L3.84229 12.006Z" stroke="#206287" stroke-width="2.1978"/>
</svg>

