<svg width="281" height="57" viewBox="0 0 281 57" fill="none" xmlns="http://www.w3.org/2000/svg">
<path fill-rule="evenodd" clip-rule="evenodd" d="M39.2526 28.0676C39.2526 12.5663 33.3748 3.72562e-05 26.1242 3.75731e-05C18.8736 3.789e-05 12.9959 12.5663 12.9959 28.0676C12.9959 43.5689 18.8737 56.1351 26.1242 56.1351C33.3748 56.1351 39.2526 43.5689 39.2526 28.0676ZM37.8897 28.0676C37.8897 14.4415 32.62 3.39534 26.1194 3.39534C19.6189 3.39534 14.3492 14.4415 14.3492 28.0676C14.3492 41.6937 19.6189 52.7399 26.1195 52.7399C32.62 52.7399 37.8897 41.6937 37.8897 28.0676Z" fill="#184688"/>
<path fill-rule="evenodd" clip-rule="evenodd" d="M32.692 16.6981C19.2675 8.94741 5.44595 7.75458 1.82065 14.0338C-1.80465 20.313 6.13917 31.6864 19.5637 39.4371C32.9882 47.1877 46.8098 48.3805 50.4351 42.1013C54.0604 35.8221 46.1165 24.4487 32.692 16.6981ZM32.0105 17.8742C20.2099 11.0611 8.0088 10.1017 4.75853 15.7314C1.50826 21.361 8.43965 31.4478 20.2402 38.2609C32.0408 45.0739 44.2419 46.0333 47.4922 40.4036C50.7424 34.774 43.811 24.6872 32.0105 17.8742Z" fill="#184688"/>
<path fill-rule="evenodd" clip-rule="evenodd" d="M32.6882 39.437C46.1127 31.6864 54.0566 20.313 50.4313 14.0338C46.806 7.75456 32.9844 8.9474 19.5599 16.698C6.13536 24.4487 -1.80846 35.8221 1.81684 42.1013C5.44214 48.3805 19.2637 47.1877 32.6882 39.437ZM32.0152 38.2608C43.8158 31.4478 50.7472 21.361 47.4969 15.7313C44.2467 10.1017 32.0455 11.0611 20.245 17.8741C8.44441 24.6872 1.51303 34.774 4.76329 40.4036C8.01356 46.0332 20.2147 45.0739 32.0152 38.2608Z" fill="#184688"/>
<circle cx="26.1255" cy="28.0003" r="3.5897" fill="#184688"/>
<path d="M69.2302 37.3525C67.9599 37.3525 66.8229 37.1604 65.8192 36.7762C64.8234 36.3841 63.9765 35.7921 63.2787 35.0001C62.5886 34.2081 62.0633 33.2123 61.7026 32.0125L64.8312 31.2363C65.1292 32.138 65.6428 32.8829 66.3721 33.471C67.1013 34.0591 67.9835 34.3493 69.0185 34.3414C69.7478 34.3257 70.4417 34.1807 71.1004 33.9062C71.7669 33.6318 72.304 33.2123 72.7118 32.6477C73.0097 32.2713 73.2371 31.8596 73.394 31.4127C73.5586 30.9579 73.6763 30.4913 73.7468 30.013L67.8188 30.013L67.8188 27.0255L73.7704 27.0255C73.6292 26.1629 73.3548 25.4062 72.947 24.7554C72.5393 24.1046 72.0061 23.5988 71.3474 23.2381C70.6887 22.8774 69.9124 22.7049 69.0185 22.7206C67.9599 22.7284 67.0582 23.0264 66.3133 23.6145C65.5762 24.2026 65.0665 24.9867 64.7842 25.9669L61.5849 25.5199C62.0084 23.6694 62.8827 22.2383 64.2079 21.2268C65.533 20.2153 67.2072 19.7095 69.2302 19.7095C70.8691 19.7095 72.2844 20.082 73.4763 20.8269C74.676 21.564 75.6013 22.5951 76.2521 23.9203C76.903 25.2455 77.2284 26.7824 77.2284 28.531C77.2284 30.1777 76.9069 31.6675 76.2639 33.0006C75.6287 34.3336 74.7113 35.3922 73.5116 36.1763C72.3197 36.9604 70.8926 37.3525 69.2302 37.3525ZM77.4013 36.9996L77.4013 34.3414C77.762 34.3649 78.0678 34.3336 78.3187 34.2473C78.5697 34.1611 78.7814 34.0042 78.9539 33.7768C79.1342 33.5416 79.2911 33.2201 79.4244 32.8124C79.5577 32.3968 79.6831 31.8792 79.8007 31.2598C79.9889 30.2796 80.1458 29.2485 80.2712 28.1664C80.4045 27.0764 80.5143 26.01 80.6006 24.9671C80.6868 23.9242 80.7535 22.9754 80.8005 22.1207C80.8476 21.2582 80.8828 20.5721 80.9064 20.0624L92.4566 20.0624L92.4566 36.9996L89.2574 36.9996L89.2574 23.0499L83.8469 23.0499C83.8155 23.489 83.7724 24.0614 83.7175 24.7672C83.6704 25.4729 83.6038 26.2531 83.5175 27.1078C83.4313 27.9625 83.3254 28.8486 83.2 29.766C83.0745 30.6834 82.9216 31.5734 82.7412 32.436C82.5766 33.275 82.3766 34.0199 82.1414 34.6708C81.9061 35.3137 81.5925 35.843 81.2004 36.2586C80.8162 36.6664 80.3183 36.9369 79.7066 37.0702C79.095 37.2035 78.3266 37.18 77.4013 36.9996ZM95.2264 36.9996L95.2264 20.0624L106.283 20.0624L106.283 23.0499L98.4257 23.0499L98.4257 26.6726L104.871 26.6726L104.871 29.6602L98.4257 29.6602L98.4257 34.0121L106.283 34.0121L106.283 36.9996L95.2264 36.9996ZM108.567 36.9996L108.567 20.0624L111.766 20.0624L111.766 27.8723L118.212 20.0624L122.117 20.0624L115.036 28.4134L122.564 36.9996L118.518 36.9996L111.766 29.2838L111.766 36.9996L108.567 36.9996ZM127.605 36.9996L127.605 23.0499L122.266 23.0499L122.266 20.0624L136.145 20.0624L136.145 23.0499L130.805 23.0499L130.805 36.9996L127.605 36.9996ZM137.5 36.9996L137.5 20.0624L144.652 20.0624C144.816 20.0624 145.036 20.0702 145.31 20.0859C145.592 20.0937 145.843 20.1173 146.063 20.1565C147.074 20.3133 147.902 20.6465 148.545 21.1562C149.196 21.6659 149.674 22.3089 149.98 23.0852C150.286 23.8537 150.438 24.7123 150.438 25.6611C150.438 26.6099 150.282 27.4724 149.968 28.2487C149.662 29.0172 149.184 29.6562 148.533 30.1659C147.89 30.6756 147.067 31.0089 146.063 31.1657C145.843 31.1971 145.592 31.2206 145.31 31.2363C145.028 31.2519 144.808 31.2598 144.652 31.2598L140.699 31.2598L140.699 36.9996L137.5 36.9996ZM140.699 28.2722L144.51 28.2722C144.675 28.2722 144.855 28.2644 145.051 28.2487C145.247 28.233 145.428 28.2017 145.592 28.1546C146.024 28.037 146.357 27.841 146.592 27.5665C146.827 27.2842 146.988 26.9745 147.074 26.6373C147.169 26.2923 147.216 25.9669 147.216 25.6611C147.216 25.3553 147.169 25.0338 147.074 24.6966C146.988 24.3516 146.827 24.0418 146.592 23.7674C146.357 23.4851 146.024 23.2852 145.592 23.1675C145.428 23.1205 145.247 23.0891 145.051 23.0734C144.855 23.0578 144.675 23.0499 144.51 23.0499L140.699 23.0499L140.699 28.2722ZM159.534 37.3525C157.841 37.3525 156.378 36.984 155.147 36.2469C153.924 35.5098 152.979 34.4786 152.312 33.1535C151.654 31.8283 151.324 30.2875 151.324 28.531C151.324 26.7745 151.654 25.2337 152.312 23.9085C152.979 22.5834 153.924 21.5522 155.147 20.8151C156.378 20.0781 157.841 19.7095 159.534 19.7095C161.228 19.7095 162.686 20.0781 163.91 20.8151C165.141 21.5522 166.086 22.5834 166.744 23.9085C167.411 25.2337 167.744 26.7745 167.744 28.531C167.744 30.2875 167.411 31.8283 166.744 33.1535C166.086 34.4786 165.141 35.5098 163.91 36.2469C162.686 36.984 161.228 37.3525 159.534 37.3525ZM159.534 34.3414C160.609 34.3571 161.502 34.1258 162.216 33.6475C162.93 33.1691 163.463 32.4909 163.816 31.6126C164.176 30.7344 164.357 29.7072 164.357 28.531C164.357 27.3548 164.176 26.3354 163.816 25.4729C163.463 24.6103 162.93 23.9399 162.216 23.4616C161.502 22.9833 160.609 22.7363 159.534 22.7206C158.46 22.7049 157.566 22.9362 156.853 23.4145C156.139 23.8929 155.602 24.5711 155.241 25.4494C154.888 26.3276 154.712 27.3548 154.712 28.531C154.712 29.7072 154.888 30.7266 155.241 31.5891C155.602 32.4517 156.139 33.1221 156.853 33.6004C157.566 34.0787 158.46 34.3257 159.534 34.3414ZM169.557 36.9996L169.557 20.0624L172.757 20.0624L172.757 27.0255L180.331 27.0255L180.331 20.0624L183.531 20.0624L183.531 36.9996L180.331 36.9996L180.331 30.013L172.757 30.013L172.757 36.9996L169.557 36.9996ZM186.298 36.9996L186.298 20.0624L200.272 20.0624L200.272 36.9996L197.072 36.9996L197.072 23.0499L189.498 23.0499L189.498 36.9996L186.298 36.9996ZM203.039 36.9996L203.039 20.0624L210.19 20.0624C210.355 20.0624 210.575 20.0702 210.849 20.0859C211.131 20.0937 211.382 20.1173 211.602 20.1565C212.613 20.3133 213.441 20.6465 214.084 21.1562C214.734 21.6659 215.213 22.3089 215.519 23.0852C215.824 23.8537 215.977 24.7123 215.977 25.6611C215.977 26.6099 215.82 27.4724 215.507 28.2487C215.201 29.0172 214.723 29.6562 214.072 30.1659C213.429 30.6756 212.605 31.0089 211.602 31.1657C211.382 31.1971 211.131 31.2206 210.849 31.2363C210.567 31.2519 210.347 31.2598 210.19 31.2598L206.238 31.2598L206.238 36.9996L203.039 36.9996ZM206.238 28.2722L210.049 28.2722C210.214 28.2722 210.394 28.2644 210.59 28.2487C210.786 28.233 210.967 28.2017 211.131 28.1546C211.563 28.037 211.896 27.841 212.131 27.5665C212.366 27.2842 212.527 26.9745 212.613 26.6373C212.707 26.2923 212.754 25.9669 212.754 25.6611C212.754 25.3553 212.707 25.0338 212.613 24.6966C212.527 24.3516 212.366 24.0418 212.131 23.7674C211.896 23.4851 211.563 23.2852 211.131 23.1675C210.967 23.1205 210.786 23.0891 210.59 23.0734C210.394 23.0578 210.214 23.0499 210.049 23.0499L206.238 23.0499L206.238 28.2722ZM231.66 36.9996L228.414 36.9996L228.414 25.7081L221.051 36.9996L217.804 36.9996L217.804 20.0624L221.051 20.0624L221.051 31.3539L228.414 20.0624L231.66 20.0624L231.66 36.9996ZM234.407 36.9996L234.407 20.0624L246.028 20.0624L246.028 23.0499L237.606 23.0499L237.606 26.2727L241.558 26.2727C241.715 26.2727 241.935 26.2805 242.217 26.2962C242.499 26.3041 242.75 26.3198 242.97 26.3433C243.942 26.4452 244.75 26.7471 245.393 27.2489C246.044 27.743 246.53 28.3742 246.851 29.1426C247.181 29.9032 247.345 30.7344 247.345 31.6362C247.345 32.5379 247.185 33.373 246.863 34.1415C246.542 34.9021 246.055 35.5333 245.405 36.0352C244.762 36.5292 243.95 36.8271 242.97 36.9291C242.75 36.9526 242.499 36.9722 242.217 36.9879C241.943 36.9957 241.723 36.9996 241.558 36.9996L234.407 36.9996ZM237.606 34.0121L241.417 34.0121C241.582 34.0121 241.762 34.0043 241.958 33.9886C242.154 33.9729 242.335 33.9494 242.499 33.918C243.15 33.7769 243.581 33.475 243.793 33.0123C244.013 32.5497 244.123 32.091 244.123 31.6362C244.123 31.1735 244.013 30.7148 243.793 30.26C243.581 29.7974 243.15 29.4955 242.499 29.3543C242.335 29.3151 242.154 29.2916 241.958 29.2838C241.762 29.2681 241.582 29.2602 241.417 29.2602L237.606 29.2602L237.606 34.0121ZM256.441 37.3525C254.747 37.3525 253.285 36.984 252.054 36.2469C250.831 35.5098 249.886 34.4787 249.219 33.1535C248.561 31.8283 248.231 30.2875 248.231 28.531C248.231 26.7745 248.561 25.2337 249.219 23.9085C249.886 22.5834 250.831 21.5522 252.054 20.8151C253.285 20.0781 254.747 19.7095 256.441 19.7095C258.135 19.7095 259.593 20.0781 260.817 20.8151C262.048 21.5522 262.993 22.5834 263.651 23.9085C264.318 25.2337 264.651 26.7745 264.651 28.531C264.651 30.2875 264.318 31.8283 263.651 33.1535C262.993 34.4787 262.048 35.5098 260.817 36.2469C259.593 36.984 258.135 37.3525 256.441 37.3525ZM256.441 34.3414C257.515 34.3571 258.409 34.1258 259.123 33.6475C259.837 33.1691 260.37 32.4909 260.723 31.6126C261.083 30.7344 261.264 29.7072 261.264 28.531C261.264 27.3548 261.083 26.3354 260.723 25.4729C260.37 24.6103 259.837 23.9399 259.123 23.4616C258.409 22.9833 257.515 22.7363 256.441 22.7206C255.367 22.7049 254.473 22.9362 253.759 23.4145C253.046 23.8929 252.509 24.5711 252.148 25.4494C251.795 26.3276 251.619 27.3548 251.619 28.531C251.619 29.7072 251.795 30.7266 252.148 31.5891C252.509 32.4517 253.046 33.1221 253.759 33.6004C254.473 34.0787 255.367 34.3257 256.441 34.3414ZM266.464 36.9996L266.464 20.0624L273.616 20.0624C273.78 20.0624 274 20.0702 274.274 20.0859C274.557 20.0937 274.808 20.1173 275.027 20.1565C276.039 20.3133 276.866 20.6466 277.509 21.1562C278.16 21.6659 278.638 22.3089 278.944 23.0852C279.25 23.8537 279.403 24.7123 279.403 25.6611C279.403 26.6099 279.246 27.4724 278.932 28.2487C278.626 29.0172 278.148 29.6562 277.497 30.1659C276.854 30.6756 276.031 31.0089 275.027 31.1657C274.808 31.1971 274.557 31.2206 274.274 31.2363C273.992 31.2519 273.773 31.2598 273.616 31.2598L269.664 31.2598L269.664 36.9996L266.464 36.9996ZM269.664 28.2722L273.475 28.2722C273.639 28.2722 273.82 28.2644 274.016 28.2487C274.212 28.233 274.392 28.2017 274.557 28.1546C274.988 28.037 275.321 27.841 275.556 27.5665C275.792 27.2842 275.952 26.9745 276.039 26.6373C276.133 26.2923 276.18 25.9669 276.18 25.6611C276.18 25.3553 276.133 25.0338 276.039 24.6966C275.952 24.3516 275.792 24.0418 275.556 23.7674C275.321 23.4851 274.988 23.2852 274.557 23.1675C274.392 23.1205 274.212 23.0891 274.016 23.0734C273.82 23.0578 273.639 23.0499 273.475 23.0499L269.664 23.0499L269.664 28.2722Z" fill="#184688"/>
</svg>
