<?xml version="1.0" encoding="UTF-8"?><!DOCTYPE svg PUBLIC "-//W3C//DTD SVG 1.1//EN" "http://www.w3.org/Graphics/SVG/1.1/DTD/svg11.dtd"><svg xmlns="http://www.w3.org/2000/svg"><symbol id="icon-arr-right-compare" viewBox="8.846 42.846 7.4 7.4"><path d="M8.846 45.965h5.216l-1.644-1.645-.653-.68.794-.794.653.652 2.211 2.212.141.141.653.68-.653.681-3.005 3.005-.794-.794.681-.681-.028-.028 1.644-1.616H8.846z"/></symbol><symbol id="icon-arr-right" viewBox="8.846 42.846 11 20"><path d="M10.122 42.846l9.553 9.865-9.553 9.836-1.276-1.219 8.363-8.617-8.363-8.617z"/></symbol><symbol id="icon-arr-top" viewBox="8.846 42.846 8.6 5"><path d="M13.127 42.846l2.154 2.466 2.126 2.467H8.846l2.155-2.467z"/></symbol><symbol id="icon-cart" viewBox="0 0 420.193 387.042"><path d="M369.155 222.263L418.96 73.445c2.551-7.029.651-11.48-1.275-14.031-5.102-7.682-15.959-7.682-17.887-7.682H118.8l-7.029-35.746C109.218 7.682 103.464 0 91.332 0H12.785C4.478 0 0 3.854 0 11.51v20.438c0 7.652 4.479 9.58 12.785 9.58h66.416l61.965 262.488h232.469v-41.527H169.91l.623-.623-6.379-27.469h185.84c14.059-.001 16.61-5.105 19.161-12.134zm-188.391 91.332c20.438 0 37.021 15.959 37.021 36.396s-16.584 37.049-37.021 37.049-37.049-16.611-37.049-37.049 16.612-36.396 37.049-36.396zm152.618 0c20.438 0 37.049 15.959 37.049 36.396s-16.61 37.049-37.049 37.049-37.021-16.611-37.021-37.049 16.583-36.396 37.021-36.396z"/></symbol><symbol id="icon-close-window" viewBox="8.846 42.846 17 17"><path d="M17.039 42.846c2.268 0 4.337.907 5.812 2.409a8.099 8.099 0 0 1 2.409 5.783c0 2.268-.907 4.337-2.409 5.811-1.475 1.503-3.544 2.409-5.812 2.409a8.09 8.09 0 0 1-5.782-2.409c-1.503-1.474-2.41-3.543-2.41-5.811 0-2.239.907-4.309 2.41-5.783a8.097 8.097 0 0 1 5.782-2.409zm4.422 3.799a6.208 6.208 0 0 0-4.422-1.814 6.19 6.19 0 0 0-6.208 6.208c0 1.729.681 3.288 1.814 4.422 1.134 1.105 2.693 1.814 4.394 1.814a6.333 6.333 0 0 0 4.422-1.814 6.21 6.21 0 0 0 1.814-4.422c0-1.701-.681-3.26-1.814-4.394z"/><path d="M20.449 48.906l-5.539 5.538-1.254-1.253 5.54-5.54z"/><path d="M14.911 47.653l5.54 5.539-1.253 1.253-5.54-5.538z"/></symbol><symbol id="icon-compare" viewBox="0 0 376.301 354.756"><path d="M0 0h62.646v354.756H0V0zm313.653 188.446H376.3v166.31h-62.646v-166.31zM208.717 63.836h62.646v290.92h-62.646V63.836zm-104.941 64.205h62.646v226.715h-62.646V128.041z"/></symbol><symbol id="icon-corner-opinions" viewBox="8.846 42.846 13.3 7.6"><path d="M15.452 50.443l3.316-3.799 3.288-3.798H8.846l3.317 3.798z"/></symbol><symbol id="icon-corner-search" viewBox="8.846 42.846 13.3 7.6"><path d="M15.452 42.846l3.316 3.798 3.288 3.799H8.846l3.317-3.799z"/></symbol><symbol id="icon-del" viewBox="8.846 42.846 7 7"><path d="M8.846 48.374l2.126-2.155-2.126-2.125 1.248-1.248 2.125 2.126 2.155-2.126 1.247 1.248-2.126 2.125 2.126 2.155-1.247 1.247-2.155-2.126-2.125 2.126z"/></symbol><symbol id="icon-favorites" viewBox="0 0 421.512 400.904"><path d="M210.756 0l49.55 153.44 161.205-.312-130.621 94.535 50.118 153.24-130.252-95.016-130.252 95.016 50.117-153.24L0 153.128l161.233.312z"/></symbol><symbol id="icon-gost" viewBox="8.846 42.846 32.3 25.4"><path d="M14.345 62.548c-.964.057-1.984-.851-2.268-1.814-.113-.396-.057-4.989-.057-6.066 0-.538-.057-1.587 0-2.069.17-1.077.708-2.098 1.36-2.749.396-.369.652-.567 1.19-.822 2.722-1.275 5.727.51 6.236 3.146.255 1.275-.028 2.324-.596 3.288-.283.481-.991 1.162-1.587 1.474-.907.482-1.417.567-2.494.539-.936 0-.737-.227-.737-1.304 0-1.616-.142-1.191.624-1.049 2.154.396 3.175-1.956 2.211-3.26-.256-.312-.737-.709-1.191-.851a2.175 2.175 0 0 0-2.607 1.417c-.142.482-.085 1.36-.085 1.956.001 2.692.058 5.47.001 8.164zm18.369-7.655c.454 0 1.786-.085 2.098.028.085.369 0 3.09.028 3.742l4.224.028V54.92h2.098v-2.579h-8.447v2.552zm-23.868-.311v1.871c.085.142.142.879.17 1.134.085.368.17.737.255 1.077.426 1.559 1.503 3.685 2.608 4.848.142.113.198.227.34.368 1.814 1.843 3.741 3.005 7.059 3.741 3.486.737 6.265.737 9.808.114 1.36-.256 2.977-.709 4.195-1.191 1.021-.396 2.806-1.134 3.656-1.729l.028-5.499-1.928.992c-2.068.963-4.96 1.757-7.312 1.474-3.062-.34-5.557-2.977-5.557-6.265 0-1.814.766-3.316 1.645-4.252.255-.227.453-.481.766-.709.935-.708 1.842-1.134 3.118-1.304 2.268-.312 5.272.511 7.312 1.445l1.956 1.021v-5.527a23.43 23.43 0 0 0-2.409-1.19 26.565 26.565 0 0 0-8.249-2.098l-.312-.028c-.142-.028-.028 0-.085-.028h-3.033c-.113.057-1.162.142-1.389.17-2.041.283-4.508.822-6.265 1.814-2.75 1.559-4.819 3.969-5.812 7.087-.227.68-.425 1.587-.51 2.324.002.142.002.255-.055.34z"/></symbol><symbol id="icon-head-search" viewBox="0 0 384.002 384.002"><path d="M373.436 373.436c-14.088 14.089-36.936 14.089-51.022 0l-63.638-63.666c-26.163 16.781-57.09 26.788-90.511 26.788C75.345 336.558 0 261.212 0 168.265 0 75.345 75.345 0 168.265 0c92.977 0 168.292 75.315 168.292 168.265 0 33.393-10.006 64.346-26.787 90.51l63.666 63.666c14.087 14.087 14.087 36.907 0 50.995zM168.265 48.075c-66.358 0-120.188 53.802-120.188 120.188 0 66.415 53.829 120.218 120.188 120.218 66.415 0 120.218-53.803 120.218-120.218-.001-66.386-53.803-120.188-120.218-120.188z"/></symbol><symbol id="icon-login" viewBox="0 0 554.512 594.539"><path d="M259.143 517.437h185.19V77.103h-185.19V0h295.372v594.541H259.143v-77.104zm-74.125-368.702l148.28 146.891-148.28 145.503v-107.66H0v-77.073h185.018V148.735z"/></symbol><symbol id="icon-menu-catalog" viewBox="-5.327 28.673 15.3 15.3"><path d="M-5.327 28.673h3.033v3.033h-3.033v-3.033zm12.19 12.19h3.033v3.033H6.863v-3.033zm0-6.095h3.033v3.033H6.863v-3.033zm0-6.095h3.033v3.033H6.863v-3.033zM.768 40.863H3.8v3.033H.768v-3.033zm0-6.095H3.8v3.033H.768v-3.033zm0-6.095H3.8v3.033H.768v-3.033zm-6.095 12.19h3.033v3.033h-3.033v-3.033zm0-6.095h3.033v3.033h-3.033v-3.033z"/></symbol><symbol id="icon-play" viewBox="8.846 42.846 25 25"><path d="M21.177 42.846c3.401 0 6.491 1.389 8.702 3.628a12.207 12.207 0 0 1 3.629 8.702c0 3.402-1.39 6.492-3.629 8.703a12.206 12.206 0 0 1-8.702 3.628c-3.43 0-6.491-1.389-8.73-3.628-2.239-2.211-3.601-5.301-3.601-8.703 0-3.401 1.361-6.491 3.601-8.702 2.239-2.239 5.301-3.628 8.73-3.628zm4.167 12.53l-3.175-2.269-3.175-2.211v8.958l3.175-2.268 3.175-2.21zm3.799-8.164a11.276 11.276 0 0 0-7.966-3.316c-3.118 0-5.924 1.275-7.965 3.316s-3.317 4.847-3.317 7.965c0 3.09 1.276 5.925 3.317 7.966s4.847 3.288 7.965 3.288c3.09 0 5.925-1.247 7.966-3.288s3.288-4.876 3.288-7.966c0-3.119-1.247-5.924-3.288-7.965z"/></symbol><symbol id="icon-search" viewBox="8.846 42.846 10.1 10.1"><path d="M18.882 51.549l-2.608-2.607a4.103 4.103 0 0 0 .596-2.098 3.993 3.993 0 0 0-3.997-3.997 3.999 3.999 0 0 0-4.025 3.997 4.004 4.004 0 0 0 4.025 4.024c.766 0 1.474-.227 2.069-.595l2.607 2.607c.171.17.482.17.681 0l.652-.68a.431.431 0 0 0 0-.651zm-6.01-2.013a2.692 2.692 0 0 1-2.693-2.692 2.668 2.668 0 0 1 2.693-2.665 2.662 2.662 0 0 1 2.665 2.665c0 1.473-1.192 2.692-2.665 2.692z"/></symbol></svg>